<?xml version="1.0" encoding="UTF-8" standalone="no"?>
<svg xmlns="http://www.w3.org/2000/svg" xmlns:xlink="http://www.w3.org/1999/xlink" style="isolation:isolate" viewBox="0 0 130 130" width="130" height="130">
  <defs>
    <clipPath id="_clipPath_dKfQAtyuBFRXDqfzNcRx1nqGJr8UVmCC">
      <rect width="130" height="130"></rect>
    </clipPath>
  </defs>
  <g clip-path="url(#_clipPath_dKfQAtyuBFRXDqfzNcRx1nqGJr8UVmCC)">
    <defs>
      <filter id="mfaumJy2tzQw0Oza307ytfOzl4KRfzl1" x="-200%" y="-200%" width="400%" height="400%">
        <feOffset xmlns="http://www.w3.org/2000/svg" in="SourceAlpha" result="offOut" dx="2" dy="2"></feOffset>
        <feGaussianBlur xmlns="http://www.w3.org/2000/svg" in="offOut" result="blurOut" stdDeviation="1"></feGaussianBlur>
        <feComponentTransfer xmlns="http://www.w3.org/2000/svg" in="blurOut" result="opacOut">
          <feFuncA xmlns="http://www.w3.org/2000/svg" type="table"></feFuncA>
        </feComponentTransfer>
        <feBlend xmlns="http://www.w3.org/2000/svg" in="SourceGraphic" in2="opacOut" mode="normal"></feBlend>
      </filter>
    </defs>
    <g filter="url(#mfaumJy2tzQw0Oza307ytfOzl4KRfzl1)">
      <path d="M 0 0 L 126 0 C 126 0 126 0 126 0 L 126 126 L 126 126 L 0 126 L 0 126 L 0 0 C 0 0 0 0 0 0 Z" style="stroke:none;fill:#EBEBEB;stroke-miterlimit:10;"></path>
    </g>
    <rect x="0" y="0" width="126" height="12" transform="matrix(1,0,0,1,0,0)" fill="rgb(152,153,155)"></rect>
    <path d=" M 3 6 C 3 4.344 4.344 3 6 3 C 7.656 3 9 4.344 9 6 C 9 7.656 7.656 9 6 9 C 4.344 9 3 7.656 3 6 Z " fill="rgb(235,235,235)" fill-opacity="0.7"></path>
    <path d=" M 12 6 C 12 4.344 13.344 3 15 3 C 16.656 3 18 4.344 18 6 C 18 7.656 16.656 9 15 9 C 13.344 9 12 7.656 12 6 Z " fill="rgb(235,235,235)" fill-opacity="0.7"></path>
    <rect x="3" y="18" width="120" height="36" transform="matrix(1,0,0,1,0,0)" fill="rgb(255,160,128)"></rect>
    <path d=" M 9 54 L 30 33 L 45 48 L 66 30 L 93 54 L 9 54 Z " fill="rgb(235,235,235)"></path>
    <g transform="matrix(0.245,0,0,0.245,18,28.5)">
      <text transform="matrix(1,0,0,1,96.977,44.566)" style="font-family:&quot;Open Sans&quot;;font-weight:400;font-size:36px;font-style:normal;fill:#8a8a8a;stroke:none;">Start page</text>
    </g>
    <path d=" M 87 27 C 87 23.689 89.689 21 93 21 C 96.311 21 99 23.689 99 27 C 99 30.311 96.311 33 93 33 C 89.689 33 87 30.311 87 27 Z " fill="rgb(235,235,235)"></path>
    <path d=" M 9 30 L 6 36 L 9 42 L 12 42 L 9 36 L 12 30 L 9 30 Z " fill="rgb(255,255,255)"></path>
    <path d=" M 117 30 L 120 36 L 117 42 L 114 42 L 117 36 L 114 30 L 117 30 Z " fill="rgb(255,255,255)"></path>
    <path d="M 3 90 L 123 90 C 123 90 123 90 123 90 L 123 120 C 123 120 123 120 123 120 L 3 120 C 3 120 3 120 3 120 L 3 90 C 3 90 3 90 3 90 Z" style="stroke:none;fill:#FFA080;stroke-miterlimit:10;"></path>
    <path d="M 3 57 L 123 57 C 123 57 123 57 123 57 L 123 87 C 123 87 123 87 123 87 L 3 87 C 3 87 3 87 3 87 L 3 57 C 3 57 3 57 3 57 Z" style="stroke:none;fill:#B4BCBE;stroke-miterlimit:10;"></path>
    <g transform="matrix(1,0,0,1,23,42)">
      <text transform="matrix(1,0,0,1,5.357,8.551)" style="font-family:&quot;Open Sans&quot;;font-weight:400;font-size:8px;font-style:normal;fill:#9b9b9b;stroke:none;">Lorem ipsum dolor </text>
      <text transform="matrix(1,0,0,1,2.02,19.445)" style="font-family:&quot;Open Sans&quot;;font-weight:400;font-size:8px;font-style:normal;fill:#9b9b9b;stroke:none;">sit amet, consectetur </text>
    </g>
  </g>
</svg>
